<?xml version="1.0" encoding="UTF-8" standalone="no"?>
<svg
   xmlns:dc="http://purl.org/dc/elements/1.1/"
   xmlns:cc="http://creativecommons.org/ns#"
   xmlns:rdf="http://www.w3.org/1999/02/22-rdf-syntax-ns#"
   xmlns:svg="http://www.w3.org/2000/svg"
   xmlns="http://www.w3.org/2000/svg"
   xmlns:sodipodi="http://sodipodi.sourceforge.net/DTD/sodipodi-0.dtd"
   xmlns:inkscape="http://www.inkscape.org/namespaces/inkscape"
   width="210mm"
   height="297mm"
   viewBox="0 0 210 297"
   version="1.1"
   id="svg8"
   inkscape:version="1.0 (4035a4fb49, 2020-05-01)"
   sodipodi:docname="bath.svg">
  <defs
     id="defs2" />
  <sodipodi:namedview
     id="base"
     pagecolor="#ffffff"
     bordercolor="#666666"
     borderopacity="1.0"
     inkscape:pageopacity="0.0"
     inkscape:pageshadow="2"
     inkscape:zoom="1.4142136"
     inkscape:cx="484.60136"
     inkscape:cy="350.71687"
     inkscape:document-units="mm"
     inkscape:current-layer="layer1"
     inkscape:document-rotation="0"
     showgrid="false"
     inkscape:window-width="1858"
     inkscape:window-height="1057"
     inkscape:window-x="54"
     inkscape:window-y="-8"
     inkscape:window-maximized="1" />
  <metadata
     id="metadata5">
    <rdf:RDF>
      <cc:Work
         rdf:about="">
        <dc:format>image/svg+xml</dc:format>
        <dc:type
           rdf:resource="http://purl.org/dc/dcmitype/StillImage" />
        <dc:title />
      </cc:Work>
    </rdf:RDF>
  </metadata>
  <g
     inkscape:label="レイヤー 1"
     inkscape:groupmode="layer"
     id="layer1">
    <path
       inkscape:export-ydpi="300"
       inkscape:export-xdpi="300"
       d="m 164.65503,124.78793 a 20.088146,4.2632661 0 0 0 -2.90888,0.0449 28.967576,6.1477296 0 0 1 2.44713,-0.022 28.967576,6.1477296 0 0 1 5.38535,0.10722 20.088146,4.2632661 0 0 0 -4.9236,-0.13015 z m 4.9236,0.13016 a 20.088146,4.2632661 0 0 1 15.16431,4.13328 20.088146,4.2632661 0 0 1 -20.08791,4.26312 20.088146,4.2632661 0 0 1 -20.08791,-4.26312 20.088146,4.2632661 0 0 1 17.17903,-4.2185 28.967576,6.1477296 0 0 0 -26.52048,6.12554 28.967576,6.1477296 0 0 0 28.96761,6.14786 28.967576,6.1477296 0 0 0 28.96762,-6.14786 28.967576,6.1477296 0 0 0 -23.58227,-6.04032 z"
       style="fill:none;fill-opacity:1;stroke:#ff0000;stroke-width:0.774383;stroke-linecap:round;stroke-linejoin:round;stroke-miterlimit:4;stroke-dasharray:none;stroke-opacity:1"
       id="path848" />
    <path
       id="rect833"
       style="fill:#000000;stroke:#000000;stroke-width:3.51044;stroke-linecap:square;stroke-linejoin:round;stroke-miterlimit:4;stroke-dasharray:none;stroke-opacity:1"
       d="m 72.846583,127.24987 3.353416,15.88973 h 28.224041 l 3.35315,-15.88973 h -6.70657 -21.517473 z"
       inkscape:export-xdpi="300"
       inkscape:export-ydpi="300" />
    <path
       style="fill:none;stroke:#000000;stroke-width:3;stroke-linecap:round;stroke-linejoin:round;stroke-opacity:1;stroke-miterlimit:4;stroke-dasharray:none"
       d="M 76.199999,139.96458 V 101.6 c 0,0 1.852083,-5.820835 6.879167,0"
       id="path854"
       inkscape:export-xdpi="300"
       inkscape:export-ydpi="300" />
    <path
       sodipodi:type="star"
       style="fill:#000000;stroke:#000000;stroke-width:1.81911;stroke-linecap:square;stroke-linejoin:round;stroke-miterlimit:4;stroke-dasharray:none;stroke-opacity:1"
       id="path856"
       sodipodi:sides="3"
       sodipodi:cx="84.718567"
       sodipodi:cy="103.58878"
       sodipodi:r1="4.2809339"
       sodipodi:r2="2.1404669"
       sodipodi:arg1="-0.22679885"
       sodipodi:arg2="0.8203987"
       inkscape:flatsided="true"
       inkscape:rounded="0"
       inkscape:randomized="0"
       d="m 88.889871,102.62617 -5.423313,5.05637 -1.667287,-7.22491 z"
       inkscape:transform-center-x="-0.62600406"
       inkscape:transform-center-y="0.48130386"
       inkscape:export-xdpi="300"
       inkscape:export-ydpi="300" />
    <path
       style="fill:none;stroke:#000000;stroke-width:1;stroke-linecap:round;stroke-linejoin:round;stroke-miterlimit:4;stroke-dasharray:1, 2;stroke-dashoffset:0;stroke-opacity:1"
       d="m 85.19583,112.1833 c 0,0 5.027083,4.49792 7.672912,12.7"
       id="path858"
       inkscape:export-xdpi="300"
       inkscape:export-ydpi="300" />
    <path
       style="fill:none;stroke:#000000;stroke-width:1.00000003;stroke-linecap:round;stroke-linejoin:round;stroke-opacity:1;stroke-miterlimit:4;stroke-dasharray:1.00000003,2.00000006;stroke-dashoffset:0"
       d="m 98.160415,122.76667 c 0,0 -2.38125,-7.9375 -8.995833,-14.2875"
       id="path860"
       inkscape:export-xdpi="300"
       inkscape:export-ydpi="300" />
    <path
       style="fill:none;stroke:#000000;stroke-width:1.00000003;stroke-linecap:round;stroke-linejoin:round;stroke-opacity:1;stroke-miterlimit:4;stroke-dasharray:1.00000003,2.00000006;stroke-dashoffset:0"
       d="m 103.05521,121.97292 c 0,0 -2.24896,-12.7 -11.112503,-16.53646"
       id="path862"
       inkscape:export-xdpi="300"
       inkscape:export-ydpi="300" />
    <path
       inkscape:export-ydpi="300"
       inkscape:export-xdpi="300"
       d="m 151.55942,110.83917 c 0,0 -9.78149,1.24954 -2.55704,9.543 7.22444,8.29346 -2.36763,8.83609 -2.36763,8.83609 m 4.92489,-18.37903 c 0,0 -7.87785,1.75962 -2.55704,9.54299 5.3208,7.78339 -2.36763,8.8361 -2.36763,8.8361"
       style="fill:none;fill-opacity:1;stroke:#ff0000;stroke-width:0.657725;stroke-linecap:butt;stroke-linejoin:miter;stroke-miterlimit:4;stroke-dasharray:none;stroke-opacity:1"
       id="path870-8" />
    <path
       inkscape:export-ydpi="300"
       inkscape:export-xdpi="300"
       id="path870-8-8"
       style="fill:none;fill-opacity:1;stroke:#ff0000;stroke-width:0.657725;stroke-linecap:butt;stroke-linejoin:miter;stroke-miterlimit:4;stroke-dasharray:none;stroke-opacity:1"
       d="m 183.52853,110.83318 c 0,0 -9.78149,1.24953 -2.55704,9.54299 7.22444,8.29346 -2.36763,8.83609 -2.36763,8.83609 m 4.92489,-18.37902 c 0,0 -7.87785,1.75961 -2.55704,9.54298 5.3208,7.78339 -2.36763,8.8361 -2.36763,8.8361" />
    <path
       inkscape:export-ydpi="300"
       inkscape:export-xdpi="300"
       d="m 156.09028,121.16645 c 0,0 1.89978,-14.87169 14.50909,-3.8877 1.10419,0.96186 2.11802,1.72766 3.04883,2.32436 m -17.55783,1.56367 c 0,0 2.6753,-11.97741 14.50908,-3.8877 1.10185,0.75324 2.11499,1.335 3.04637,1.77068 m -9.18424,-12.09851 c 1.21772,-11.455805 11.11904,-4.39548 11.11904,-4.39548 m -10.68886,4.74352 c 2.36515,-9.731781 10.68866,-4.7438 10.68866,-4.7438 m -9.51078,-7.27003 c -0.137,0.109601 -5.42642,1.293941 -0.14466,16.04672 5.63661,15.74392 -9.83461,9.8346 -9.83461,9.8346 m 9.97927,-25.88132 c 0,0 -1.23342,1.753743 -0.14442,16.04695 1.08899,14.29322 -9.83461,9.83461 -9.83461,9.83461"
       style="fill:none;fill-opacity:1;stroke:#ff0000;stroke-width:1;stroke-linecap:butt;stroke-linejoin:miter;stroke-miterlimit:4;stroke-dasharray:none;stroke-opacity:1"
       id="path945" />
  </g>
</svg>
